
<svg width="1283px" height="1472px" viewBox="0 0 1283 1472" version="1.1" xmlns="http://www.w3.org/2000/svg" xmlns:xlink="http://www.w3.org/1999/xlink">
    <!-- Generator: Sketch 48.1 (47250) - http://www.bohemiancoding.com/sketch -->
    <desc>Created with Sketch.</desc>
    <defs></defs>
    <g id="Page-1" stroke="none" stroke-width="1" fill="none" fill-rule="evenodd">
        <path d="M631,1469.96794 C629.1,1469.26794 489.4,1388.96794 320.5,1291.46794 C70.9,1147.36794 12.6,1113.36794 8.9,1109.56794 C6,1106.56794 3.5,1102.76794 2.2,1099.06794 L0,1093.26794 L0.2,734.067942 L0.5,374.867942 L4.1,368.467942 C6,364.867942 9.2,360.767942 11.1,359.267942 C16.1,355.267942 627.1,2.76794154 631.7,1.26794154 C636.8,-0.432058458 648.6,-0.332058458 653,1.56794154 C660.7,4.96794154 1270.7,357.767942 1273.8,360.667942 C1275.6,362.467942 1278.4,366.467942 1280,369.767942 L1283,375.667942 L1283,734.867942 C1283,1052.56794 1282.8,1094.56794 1281.5,1098.46794 C1280.7,1100.86794 1278.3,1105.06794 1276.2,1107.76794 C1272.7,1112.36794 1254.6,1122.96794 963.5,1291.06794 C793.6,1389.16794 652.9,1469.86794 651,1470.36794 C646.1,1471.76794 635.2,1471.56794 631,1469.96794 Z M380.5,1103.26794 C413.3,1098.36794 443.5,1083.36794 463.6,1062.16794 C467.4,1058.06794 554.2,954.567942 656.5,832.067942 L842.5,609.467942 L843,823.667942 C843.6,1064.76794 842.8,1042.16794 851.5,1059.86794 C861.5,1080.56794 878.9,1095.16794 901.5,1101.96794 C909.6,1104.36794 912,1104.66794 926,1104.66794 C940,1104.66794 942.4,1104.36794 950.5,1101.96794 C973,1095.16794 990.2,1080.66794 1000.5,1059.86794 C1009.3,1041.96794 1008.5,1075.16794 1008.5,738.367942 C1008.5,452.567942 1008.4,439.567942 1006.7,433.367942 C998.4,403.867942 975,382.667942 941.3,374.167942 C928.5,370.867942 900.4,370.867942 884.3,374.167942 C858.2,379.367942 835.6,390.067942 816.5,406.067942 C811.4,410.367942 758.4,473.067942 619.5,639.267942 L429.5,866.667942 L429,652.767942 L428.5,438.867942 L426.3,431.067942 C419.5,407.167942 400.8,385.867942 378.7,377.067942 C367.5,372.567942 357.5,371.067942 342.2,371.667942 C326.5,372.167942 320,373.667942 308.4,379.367942 C284.2,391.167942 267.8,413.667942 264,439.967942 C263.2,445.667942 263,528.367942 263.2,742.867942 C263.5,1024.86794 263.6,1038.16794 265.4,1043.86794 C272.1,1065.96794 288.9,1084.96794 311.2,1095.26794 C330.5,1104.36794 354.7,1107.16794 380.5,1103.26794 Z" id="Shape" fill="#009639" fill-rule="nonzero" transform="translate(641.500000, 735.683971) scale(-1, 1) rotate(-180.000000) translate(-641.500000, -735.683971) "></path>
    </g>
</svg>