
<svg width="1428px" height="1223px" viewBox="0 0 1428 1223" version="1.1" xmlns="http://www.w3.org/2000/svg" xmlns:xlink="http://www.w3.org/1999/xlink">
    <!-- Generator: Sketch 48.1 (47250) - http://www.bohemiancoding.com/sketch -->
    <desc>Created with Sketch.</desc>
    <defs></defs>
    <g id="Page-1" stroke="none" stroke-width="1" fill="none" fill-rule="evenodd">
        <g id="catalogIcon-bnb-redis" fill-rule="nonzero">
            <path d="M1371.691,942.94 C1295.555,982.629 901.137,1144.795 817.17,1188.564 C733.196,1232.367 686.554,1231.94 620.221,1200.228 C553.888,1168.515 134.162,998.977 58.554,962.826 C20.761,944.775 0.895,929.524 0.895,915.126 L0.895,770.913 C0.895,770.913 547.323,651.957 635.544,620.306 C723.762,588.659 754.359,587.517 829.431,615.02 C904.513,642.523 1353.395,723.508 1427.589,750.682 C1427.589,750.682 1427.556,879.483 1427.556,892.849 C1427.566,907.115 1410.448,922.76 1371.691,942.94 Z" id="Shape" fill="#A42122"></path>
            <path d="M1371.691,798.694 C1295.555,838.367 901.137,1000.55 817.17,1044.318 C733.196,1088.104 686.554,1087.677 620.221,1055.964 C553.88,1024.27 134.163,854.698 58.555,818.579 C-17.054,782.444 -18.638,757.562 55.635,728.487 C129.9,699.395 547.324,535.619 635.553,503.967 C723.762,472.333 754.369,471.173 829.44,498.684 C904.519,526.183 1296.579,682.244 1370.775,709.419 C1444.979,736.611 1447.828,759.004 1371.691,798.694 Z" id="Shape" fill="#D82F27"></path>
            <path d="M1371.691,707.782 C1295.555,747.471 901.137,909.638 817.17,953.424 C733.196,997.193 686.554,996.767 620.221,965.053 C553.879,933.358 134.162,763.803 58.554,727.668 C20.761,709.601 0.895,694.383 0.895,679.984 L0.895,535.746 C0.895,535.746 547.323,416.796 635.544,385.144 C723.762,353.501 754.359,352.35 829.431,379.853 C904.513,407.352 1353.395,488.329 1427.589,515.508 C1427.589,515.508 1427.556,644.307 1427.556,657.691 C1427.566,671.941 1410.448,687.584 1371.691,707.782 Z" id="Shape" fill="#A42122"></path>
            <path d="M1371.691,563.523 C1295.555,603.208 901.137,765.375 817.17,809.16 C733.196,852.945 686.554,852.503 620.221,820.806 C553.88,789.111 134.163,619.535 58.555,583.409 C-17.054,547.278 -18.638,522.404 55.635,493.307 C129.9,464.233 547.324,300.453 635.553,268.81 C723.762,237.167 754.369,236.016 829.44,263.519 C904.519,291.017 1296.579,447.062 1370.775,474.246 C1444.979,501.437 1447.828,523.837 1371.691,563.523 Z" id="Shape" fill="#D82F27"></path>
            <path d="M1371.691,463.889 C1295.555,503.574 901.137,665.75 817.17,709.534 C733.196,753.319 686.554,752.877 620.221,721.181 C553.88,689.484 134.163,519.91 58.555,483.783 C20.762,465.716 0.896,450.485 0.896,436.096 L0.896,291.866 C0.896,291.866 547.324,172.915 635.545,141.272 C723.763,109.62 754.36,108.478 829.432,135.98 C904.514,163.479 1353.396,244.456 1427.59,271.635 C1427.59,271.635 1427.557,400.435 1427.557,413.809 C1427.566,428.052 1410.448,443.691 1371.691,463.889 Z" id="Shape" fill="#A42122"></path>
            <path d="M1371.691,319.634 C1295.555,359.319 901.137,521.494 817.17,565.276 C733.196,609.049 686.554,608.618 620.221,576.919 C553.888,545.213 134.162,375.66 58.554,339.529 C-17.055,303.397 -18.639,278.515 55.634,249.427 C129.9,220.339 547.324,56.58 635.553,24.929 C723.762,-6.723 754.369,-7.865 829.44,19.642 C904.519,47.145 1296.579,203.19 1370.775,230.373 C1444.979,257.544 1447.828,279.956 1371.691,319.634 Z" id="Shape" fill="#D82F27"></path>
            <polygon id="Shape" fill="#FFFFFF" points="901.195 180.749 777.571 193.578 749.89 260.168 705.19 185.863 562.443 173.033 668.956 134.62 637.003 75.659 736.72 114.657 830.743 83.877 805.328 144.85"></polygon>
            <polygon id="Shape" fill="#FFFFFF" points="742.509 503.808 511.786 408.113 842.398 357.375"></polygon>
            <ellipse id="Oval" fill="#FFFFFF" cx="422.636" cy="286.254" rx="176.704" ry="68.495"></ellipse>
            <polygon id="Shape" fill="#791514" points="1047.292 198.947 1242.957 276.274 1047.456 353.517"></polygon>
            <polygon id="Shape" fill="#AD2524" points="830.825 284.575 1047.292 198.947 1047.456 353.517 1026.235 361.818"></polygon>
        </g>
        <g id="Group" transform="translate(753.000000, 527.000000)">
            <polygon id="path2987" stroke="#000000" stroke-width="84.2399979" stroke-linecap="round" stroke-linejoin="round" points="303.66533 605.29526 61.0836158 486.49678 0.163430098 216.749967 168.265986 0.43976813 449.275656 0.43976813 470.226704 27.4423078 446.240681 83.0328244 527.360874 88.340491 606.171775 218.790528 547.242367 485.476502"></polygon>
            <polygon id="path2991" fill="#000000" points="571.361169 226.285213 302.844354 289.051515 347.538485 195.984175"></polygon>
            <polygon id="path2996" fill="#000000" points="497.457516 128.889075 383.434581 121.674544 422.849911 33.6573677"></polygon>
        </g>
    </g>
</svg>